# xmcd CD database file
#
# Track frame offsets:
#	150
#	18457
#	36992
#
# Disc length: 735 seconds
#
# Revision: 0
# Processed by: cddbd v1.5PL3 Copyright (c) Steve Scherf et al.
# Submitted via: CDex 1.50
#
DISCID=1e02dd03
DTITLE=K. - 最後のサイダー
DYEAR=2001
DGENRE=JPop
TTITLE0=最後のサイダー
TTITLE1=Little Wish (Acoustic Version)
TTITLE2=最後のサイダー (Instrumental)
EXTD=YEAR: 2001
EXTT0=
EXTT1=
EXTT2=
PLAYORDER=
